<?xml version="1.0" encoding="UTF-8" standalone="no"?>
<!DOCTYPE svg PUBLIC "-//W3C//DTD SVG 1.1//EN" "http://www.w3.org/Graphics/SVG/1.1/DTD/svg11.dtd">
<svg width="100%" height="100%" viewBox="0 0 32 32" version="1.1" xmlns="http://www.w3.org/2000/svg" xmlns:xlink="http://www.w3.org/1999/xlink" xml:space="preserve" xmlns:serif="http://www.serif.com/" style="fill-rule:evenodd;clip-rule:evenodd;stroke-linejoin:round;stroke-miterlimit:2;">
    <g id="St-Nemo" serif:id="St Nemo" transform="matrix(0.0341151,0,0,0.0341151,-2.42218,-2.42218)">
        <g id="Outer" transform="matrix(0.9591,0,0,0.9591,71.575,74.4192)">
            <circle cx="488.401" cy="485.435" r="489"/>
        </g>
        <g id="Eye" transform="matrix(0.984276,-0.176636,0.176636,0.984276,-88.5966,104.727)">
            <g id="Unified-shapes" serif:id="Unified shapes" transform="matrix(-0.160924,0.986967,-0.986967,-0.160924,1162.23,76.6831)">
                <path d="M484.997,359.77C492.155,354.268 499.538,349.042 507.127,344.109C510.604,341.848 514.126,339.649 517.689,337.513C542.296,319.864 558.339,291.018 558.339,258.454C558.339,204.793 514.773,161.227 461.112,161.227C459.757,161.227 458.407,161.254 457.065,161.31C464.275,160.855 471.546,160.625 478.87,160.625C588.998,160.625 687.051,212.734 749.697,293.62C794.54,351.519 821.24,424.164 821.24,502.995C821.24,678.779 688.476,823.799 517.837,843.168C515.887,843.389 513.932,843.594 511.973,843.782C494.386,847.028 481.046,862.457 481.046,880.977C481.046,893.168 486.827,904.019 495.794,910.938C468.043,891.282 443.342,867.599 422.543,840.745C388.211,796.416 364.513,743.445 355.29,685.671C361.264,686.262 367.321,686.565 373.449,686.565C474.145,686.565 555.898,604.812 555.898,504.116C555.898,445.416 528.117,393.153 484.997,359.77ZM495.794,910.938C496.743,911.611 497.695,912.278 498.651,912.941C497.667,912.317 496.713,911.648 495.794,910.938ZM457.065,161.31C455.068,161.435 453.076,161.578 451.088,161.738C453.064,161.535 455.057,161.392 457.065,161.31ZM495.794,910.938C496.743,911.611 497.695,912.278 498.651,912.941C497.667,912.317 496.713,911.648 495.794,910.938ZM457.065,161.31C455.068,161.435 453.076,161.578 451.088,161.738C453.064,161.535 455.057,161.392 457.065,161.31Z" style="fill:white;"/>
            </g>
            <g transform="matrix(-0.160924,0.986967,-0.986967,-0.160924,1162.23,76.6831)">
                <path d="M491.666,916.529C463.401,896.492 438.24,872.359 417.05,845C382.018,799.768 357.84,745.717 348.429,686.766C348.089,684.639 348.756,682.474 350.233,680.906C351.71,679.338 353.831,678.544 355.975,678.756C361.723,679.325 367.552,679.616 373.449,679.616C470.311,679.616 548.95,600.977 548.95,504.116C548.95,447.649 522.223,397.377 480.743,365.264C479.04,363.946 478.045,361.912 478.049,359.758C478.052,357.604 479.055,355.574 480.763,354.261C488.066,348.648 495.597,343.316 503.34,338.283C506.806,336.03 510.315,333.836 513.869,331.701C536.59,315.298 551.391,288.591 551.391,258.454C551.391,208.627 510.939,168.175 461.112,168.175C459.877,168.175 458.648,168.2 457.425,168.249C455.494,168.371 453.567,168.509 451.646,168.664C447.85,168.969 444.516,166.163 444.169,162.371C443.822,158.58 446.591,155.215 450.379,154.826C452.47,154.612 454.578,154.459 456.703,154.37C464.033,153.91 471.425,153.677 478.87,153.677C591.231,153.677 691.274,206.84 755.19,289.365C800.944,348.441 828.188,422.562 828.188,502.995C828.188,682.348 692.725,830.31 518.62,850.071C516.736,850.285 514.848,850.484 512.949,850.669C498.736,853.431 487.994,865.96 487.994,880.977C487.994,890.881 492.671,899.702 499.931,905.354C500.821,905.984 501.714,906.609 502.61,907.23C505.718,909.385 506.532,913.63 504.441,916.782C502.351,919.933 498.124,920.834 494.93,918.808C493.807,918.096 492.718,917.335 491.666,916.529ZM515.399,169.543C545.312,187.858 565.288,220.842 565.288,258.454C565.288,293.342 548.102,324.25 521.738,343.159C521.584,343.269 521.425,343.374 521.262,343.472C517.771,345.565 514.321,347.719 510.914,349.934C505.947,353.163 501.071,356.519 496.29,359.999C537.011,394.749 562.846,446.439 562.846,504.116C562.846,608.647 477.98,693.513 373.449,693.513C370.165,693.513 366.9,693.429 363.656,693.263C373.6,746.484 396.132,795.296 428.037,836.491C441.801,854.262 457.309,870.616 474.304,885.293C474.168,883.873 474.098,882.433 474.098,880.977C474.098,859.053 489.893,840.791 510.712,836.949C510.909,836.913 511.108,836.885 511.308,836.866C513.228,836.681 515.143,836.481 517.053,836.264C684.228,817.289 814.292,675.21 814.292,502.995C814.292,425.766 788.135,354.597 744.203,297.874C689.849,227.694 608.289,179.623 515.399,169.543Z"/>
            </g>
            <g id="_01" serif:id="01" transform="matrix(-0.0438305,0.268818,-0.268818,-0.0438305,756.486,254.127)">
                <path d="M406.065,967.52C406.008,962.57 405.979,957.614 405.979,952.65C405.979,613.197 540.825,304.989 759.826,78.719C890.975,166.464 977.401,315.936 977.401,485.435C977.401,755.321 758.287,974.435 488.401,974.435C460.344,974.435 432.836,972.067 406.065,967.52Z" style="fill:white;"/>
            </g>
            <g id="_011" serif:id="01" transform="matrix(-0.0170508,0.104575,-0.104575,-0.0170508,663.677,321.343)">
                <path d="M359.309,957.186C433.71,635.171 556.299,331.511 719.059,54.223C872.771,136.684 977.401,298.937 977.401,485.435C977.401,755.321 758.287,974.435 488.401,974.435C443.724,974.435 400.439,968.431 359.309,957.186Z"/>
            </g>
            <g transform="matrix(-0.0170508,0.104575,-0.104575,-0.0170508,663.677,321.343)">
                <path d="M239.51,929.507C316.758,595.168 444.032,279.883 613.021,-8.018C646.466,-64.997 718.963,-85.359 777.184,-54.125C969.505,49.047 1100.36,252.092 1100.36,485.435C1100.36,823.182 826.148,1097.39 488.401,1097.39C432.501,1097.39 378.346,1089.86 326.883,1075.79C263.218,1058.38 224.652,993.815 239.51,929.507ZM513.313,850.644C703.739,837.82 854.446,679.088 854.446,485.435C854.446,389.842 817.708,302.773 757.612,237.546C655.503,430.778 573.168,636.044 513.313,850.644Z"/>
            </g>
        </g>
    </g>
</svg>
